<?xml version="1.0" standalone="no"?>
<!DOCTYPE svg PUBLIC "-//W3C//DTD SVG 20010904//EN"
 "http://www.w3.org/TR/2001/REC-SVG-20010904/DTD/svg10.dtd">
<svg version="1.0" xmlns="http://www.w3.org/2000/svg"
 width="640.000000pt" height="1280.000000pt" viewBox="0 0 640.000000 1280.000000"
 preserveAspectRatio="xMidYMid meet">
<g transform="translate(0.000000,1280.000000) scale(0.100000,-0.100000)"
fill="#000000" stroke="none">
<path d="M3165 12782 c-36 -23 -50 -40 -58 -71 -12 -50 41 -121 92 -121 11 0
36 15 55 34 51 47 50 86 -4 138 -23 21 -44 38 -48 38 -4 0 -20 -8 -37 -18z"/>
<path d="M3295 12441 c-44 -27 -62 -51 -74 -98 -39 -147 129 -243 233 -134 30
32 48 92 39 131 -8 36 -49 88 -83 105 -39 20 -79 19 -115 -4z"/>
<path d="M2864 12027 c-71 -19 -130 -56 -192 -121 -159 -168 -146 -391 34
-555 86 -79 131 -96 249 -96 91 0 106 3 165 31 86 41 153 108 193 192 29 62
32 75 32 168 0 99 -1 104 -40 180 -67 131 -174 200 -325 209 -36 3 -88 -1
-116 -8z m30 -138 c34 -27 56 -70 56 -110 0 -46 -56 -99 -104 -99 -76 0 -126
47 -126 118 0 90 105 145 174 91z"/>
<path d="M3200 11048 c-105 -30 -179 -171 -140 -272 15 -40 81 -107 125 -127
113 -52 242 16 281 149 14 47 14 57 -1 107 -34 118 -145 177 -265 143z"/>
<path d="M2940 10270 c-290 -25 -411 -65 -454 -149 -10 -20 -13 -97 -11 -351
l2 -325 54 -120 54 -120 -1 -165 c-2 -181 -26 -392 -75 -660 -59 -327 -111
-487 -386 -1190 -209 -533 -192 -470 -223 -835 -5 -66 -23 -185 -40 -264 -91
-443 -123 -941 -85 -1331 9 -85 14 -207 13 -270 -7 -346 -8 -339 107 -1045
123 -755 129 -810 129 -1195 1 -294 0 -309 -26 -430 -15 -69 -48 -192 -73
-275 -116 -380 -159 -608 -160 -835 0 -135 3 -165 23 -230 21 -66 31 -81 95
-145 160 -159 474 -263 952 -315 158 -18 233 -21 355 -17 575 21 913 83 1163
215 107 55 208 144 243 213 78 154 44 550 -83 984 -130 440 -147 539 -147 830
1 285 28 515 148 1247 97 587 98 595 101 923 2 160 8 342 14 405 33 356 -2
864 -90 1281 -45 215 -49 244 -53 395 -4 168 -8 181 -178 614 -305 776 -385
1033 -447 1440 -32 208 -41 312 -42 487 -1 176 -8 146 78 346 36 83 43 214 18
322 -18 74 -18 76 5 151 29 100 26 199 -10 269 -40 76 -121 108 -345 135 -123
15 -497 21 -625 10z m213 -558 c28 -28 27 -101 -2 -166 -24 -56 -59 -79 -116
-78 -96 1 -130 49 -123 176 5 92 15 99 131 94 74 -4 91 -8 110 -26z m-59 -548
c22 -8 22 -26 -19 -649 -77 -1186 -131 -1876 -156 -2009 -14 -79 -29 -86 -171
-86 -135 0 -158 7 -158 50 0 16 34 209 75 427 180 958 244 1427 279 2031 9
172 16 226 27 233 16 10 99 12 123 3z m-273 -2913 c33 -4 56 -12 63 -23 12
-20 -8 -206 -25 -223 -6 -6 -65 -10 -144 -9 -192 2 -207 15 -185 165 17 121 6
112 131 104 60 -4 132 -10 160 -14z m-138 -1995 c59 -8 113 -19 121 -25 18
-15 35 -199 96 -1046 55 -761 61 -867 67 -1175 8 -403 -12 -575 -98 -855 -54
-173 -86 -215 -166 -215 -62 0 -108 24 -129 67 -25 55 -13 137 55 377 96 332
96 336 95 611 -1 132 -7 317 -13 410 -26 367 -129 1524 -156 1740 -7 60 -11
113 -9 117 6 10 8 10 137 -6z m40 -3856 c58 -18 67 -24 67 -45 0 -52 -102
-103 -170 -85 -64 17 -113 96 -89 143 10 17 18 19 68 14 31 -4 87 -16 124 -27z"/>
</g>
</svg>
